<svg width="176" height="151" viewBox="0 0 176 151" fill="none" xmlns="http://www.w3.org/2000/svg">
<path d="M78.4795 16.7227C83.0412 9.99099 92.9588 9.991 97.5205 16.7227L111.272 37.0176C113.52 40.3345 117.041 42.5735 120.998 43.2031L144.119 46.8818C153.737 48.4126 157.217 60.4589 149.896 66.8828L137.12 78.0947C133.412 81.3487 131.613 86.2649 132.345 91.1436L134.942 108.468C136.247 117.17 127.693 124.054 119.471 120.918L93.168 110.886C89.8399 109.616 86.1601 109.616 82.832 110.886L56.5293 120.918C48.3073 124.054 39.7527 117.17 41.0576 108.468L43.6553 91.1436C44.3867 86.2649 42.5878 81.3487 38.8799 78.0947L26.1035 66.8828C18.7834 60.4589 22.263 48.4126 31.8809 46.8818L55.002 43.2031C58.9589 42.5735 62.4798 40.3345 64.7275 37.0176L78.4795 16.7227Z" fill="#FCEFFF" stroke="black" stroke-width="3"/>
<path d="M57.4353 54.1621L110.403 34.3474C114.324 32.8803 118.505 35.7798 118.505 39.9671V80C118.505 83.3137 115.819 86 112.505 86H59.5376C56.2239 86 53.5376 83.3137 53.5376 80V59.7817C53.5376 57.2789 55.0912 55.039 57.4353 54.1621Z" fill="white" stroke="black" stroke-width="3"/>
<path d="M60.3066 54.6011H117.62V79.9995C117.62 83.0371 115.158 85.4995 112.12 85.4995H60.3066C57.2691 85.4995 54.8066 83.0371 54.8066 79.9995V60.1011C54.8066 57.0635 57.2691 54.6011 60.3066 54.6011Z" fill="#FFEDE0" stroke="black"/>
<rect x="54.8066" y="62.1963" width="62.8139" height="17.2278" fill="white" stroke="black"/>
<path d="M66.1029 66.6922C69.1505 68.4612 69.0722 72.8895 65.964 74.5523L64.7768 75.1872C61.7482 76.8075 58.0951 74.5754 58.1558 71.1418L58.179 69.8315C58.2396 66.3979 61.9693 64.2931 64.9388 66.0168L66.1029 66.6922Z" fill="url(#paint0_radial_135_1540)" stroke="black"/>
<path d="M80.711 67.0702C83.7586 68.8391 83.6804 73.2674 80.5721 74.9303L79.3849 75.5652C76.3563 77.1854 72.7033 74.9533 72.764 71.5197L72.7871 70.2094C72.8478 66.7758 76.5775 64.6711 79.547 66.3947L80.711 67.0702Z" fill="url(#paint1_radial_135_1540)" stroke="black"/>
<path d="M96.0877 67.0702C99.1353 68.8391 99.0571 73.2674 95.9488 74.9303L94.7616 75.5652C91.7331 77.1854 88.08 74.9533 88.1407 71.5197L88.1638 70.2094C88.2245 66.7758 91.9542 64.6711 94.9237 66.3947L96.0877 67.0702Z" fill="url(#paint2_radial_135_1540)" stroke="black"/>
<path d="M110.696 67.0702C113.743 68.8391 113.665 73.2674 110.557 74.9303L109.37 75.5652C106.341 77.1854 102.688 74.9533 102.749 71.5197L102.772 70.2094C102.833 66.7758 106.562 64.6711 109.532 66.3947L110.696 67.0702Z" fill="url(#paint3_radial_135_1540)" stroke="black"/>
<path d="M93.0278 34.8486C95.1633 31.284 100.329 31.284 102.464 34.8486L105.525 39.958C107.721 43.624 105.081 48.2852 100.807 48.2852H94.6851C90.4117 48.2851 87.7711 43.6239 89.9673 39.958L93.0278 34.8486Z" fill="#FF1C20" stroke="black"/>
<ellipse cx="97.7462" cy="34.3544" rx="0.384421" ry="1.51899" fill="white"/>
<ellipse cx="94.6708" cy="37.3925" rx="0.384421" ry="1.51899" fill="white"/>
<ellipse cx="102.359" cy="41.9492" rx="0.384421" ry="1.51899" fill="white"/>
<ellipse cx="93.902" cy="41.9492" rx="0.384421" ry="1.51899" fill="white"/>
<ellipse cx="96.2084" cy="44.9872" rx="0.384421" ry="1.51899" fill="white"/>
<ellipse cx="100.053" cy="44.9872" rx="0.384421" ry="1.51899" fill="white"/>
<ellipse cx="100.821" cy="37.3925" rx="0.384421" ry="1.51899" fill="white"/>
<ellipse cx="97.7462" cy="40.4306" rx="0.384421" ry="1.51899" fill="white"/>
<path d="M104.624 43.5636C106.741 40.0654 111.816 40.0654 113.934 43.5636V43.5636C116.129 47.1901 113.518 51.8229 109.279 51.8229V51.8229C105.04 51.8229 102.429 47.1901 104.624 43.5636V43.5636Z" fill="white"/>
<path d="M109.935 40.7017C110.393 40.7531 110.839 40.866 111.267 41.0337C111.675 41.1935 112.073 41.3804 112.459 41.5962C112.861 41.8213 113.236 42.0938 113.58 42.4126C113.885 42.6957 114.125 42.9431 114.24 43.1196C114.322 43.2458 114.48 43.5036 114.701 43.8813C114.951 44.3079 115.127 44.7658 115.228 45.2524C115.332 45.75 115.336 46.2503 115.244 46.7485C115.161 47.1967 115.058 47.6376 114.939 48.0688C114.807 48.5462 114.593 48.9839 114.295 49.3774C114.034 49.7203 113.773 50.0655 113.513 50.4087C113.223 50.7922 112.88 51.128 112.486 51.4126C112.092 51.6969 111.662 51.9188 111.201 52.0806C110.719 52.2496 110.221 52.3144 109.713 52.272C109.284 52.2363 108.859 52.2101 108.435 52.1978C107.959 52.1838 107.484 52.1106 107.017 51.9751C106.533 51.8345 106.085 51.6122 105.677 51.311C105.289 51.0243 104.933 50.6996 104.611 50.3384C104.275 49.9608 104.013 49.5358 103.822 49.0688C103.646 48.6385 103.491 48.2014 103.361 47.7563C103.218 47.2666 103.171 46.7641 103.22 46.2563C103.27 45.752 103.408 45.2738 103.635 44.8267C103.812 44.4768 103.942 44.1021 104.025 43.7017C104.137 43.1615 104.392 42.6918 104.787 42.311C105.138 41.9718 105.525 41.6848 105.947 41.4517C106.371 41.2173 106.817 41.0496 107.283 40.9478C107.714 40.8538 108.145 40.7751 108.572 40.7173C109.025 40.656 109.48 40.6506 109.935 40.7017ZM108.705 41.7095C108.305 41.7636 107.903 41.8359 107.498 41.9243C107.128 42.005 106.773 42.1378 106.431 42.3267C106.087 42.5168 105.772 42.7536 105.482 43.0337C105.235 43.2727 105.077 43.5586 105.006 43.9048C104.905 44.3895 104.744 44.8482 104.525 45.2798C104.356 45.6142 104.25 45.9709 104.213 46.354C104.176 46.7348 104.215 47.1076 104.322 47.4751C104.442 47.8864 104.581 48.2919 104.744 48.6899C104.892 49.0519 105.1 49.3809 105.361 49.6743C105.637 49.9835 105.939 50.2612 106.271 50.5063C106.584 50.7374 106.925 50.9067 107.295 51.0142C107.683 51.1267 108.073 51.1864 108.463 51.1978C108.905 51.2107 109.352 51.2386 109.799 51.2759C110.166 51.3062 110.523 51.2579 110.873 51.1353C111.243 51.005 111.585 50.8274 111.9 50.6001C112.215 50.3726 112.487 50.1064 112.717 49.8032C112.976 49.4599 113.237 49.115 113.498 48.772C113.719 48.4801 113.88 48.1587 113.978 47.8032C114.089 47.4007 114.182 46.9888 114.26 46.5688C114.328 46.1987 114.325 45.827 114.248 45.4556C114.168 45.074 114.032 44.7175 113.838 44.3853C113.614 44.0042 113.472 43.767 113.404 43.6626C113.369 43.6092 113.221 43.4481 112.896 43.147C112.61 42.8813 112.302 42.6565 111.97 42.4712C111.623 42.2769 111.266 42.1067 110.9 41.9634C110.554 41.8278 110.193 41.7394 109.822 41.6978C109.449 41.656 109.076 41.6592 108.705 41.7095Z" fill="black"/>
<path d="M109.507 40.512C106.888 44.2088 110.379 45.9914 109.635 49.5446" stroke="black" stroke-width="0.5" stroke-linecap="round"/>
<path d="M107.696 40.8906C105.017 44.8674 105.202 45.7663 105.819 49.5442" stroke="black" stroke-width="0.5" stroke-linecap="round"/>
<path d="M110.432 40.6782C113.111 44.655 112.926 45.5539 112.309 49.3318" stroke="black" stroke-width="0.5" stroke-linecap="round"/>
<path d="M82.3274 43.5636C84.445 40.0654 89.5199 40.0654 91.6375 43.5636V43.5636C93.8327 47.1901 91.2216 51.8229 86.9824 51.8229V51.8229C82.7433 51.8229 80.1322 47.1901 82.3274 43.5636V43.5636Z" fill="white"/>
<path d="M87.6389 40.7017C88.0971 40.7531 88.5426 40.866 88.9709 41.0337C89.3791 41.1935 89.7766 41.3804 90.1624 41.5962C90.5647 41.8213 90.94 42.0938 91.2834 42.4126C91.5884 42.6957 91.8291 42.9431 91.9436 43.1196C92.0252 43.2458 92.1832 43.5036 92.4045 43.8813C92.6542 44.3079 92.8305 44.7658 92.9319 45.2524C93.0355 45.75 93.0397 46.2503 92.9475 46.7485C92.8645 47.1967 92.7618 47.6376 92.6428 48.0688C92.511 48.5462 92.2969 48.9839 91.9983 49.3774C91.7379 49.7203 91.4766 50.0655 91.217 50.4087C90.9269 50.7922 90.5839 51.128 90.1897 51.4126C89.7958 51.6969 89.3655 51.9188 88.9045 52.0806C88.4225 52.2496 87.9244 52.3144 87.4163 52.272C86.9879 52.2363 86.5622 52.2101 86.1389 52.1978C85.6623 52.1838 85.188 52.1106 84.7209 51.9751C84.2362 51.8345 83.7888 51.6122 83.3811 51.311C82.9929 51.0243 82.6365 50.6996 82.3147 50.3384C81.9785 49.9608 81.7167 49.5358 81.5256 49.0688C81.3496 48.6385 81.1949 48.2014 81.0647 47.7563C80.9214 47.2666 80.8749 46.7641 80.9241 46.2563C80.9732 45.752 81.1114 45.2738 81.3381 44.8267C81.5154 44.4768 81.6457 44.1021 81.7288 43.7017C81.8407 43.1615 82.0959 42.6918 82.4905 42.311C82.8421 41.9718 83.2291 41.6848 83.6506 41.4517C84.0746 41.2173 84.5209 41.0496 84.9866 40.9478C85.4171 40.8538 85.8489 40.7751 86.2756 40.7173C86.7289 40.656 87.1839 40.6506 87.6389 40.7017ZM86.4084 41.7095C86.009 41.7636 85.6065 41.8359 85.2014 41.9243C84.8321 42.005 84.4766 42.1378 84.135 42.3267C83.7911 42.5168 83.476 42.7536 83.1858 43.0337C82.9382 43.2727 82.781 43.5586 82.7092 43.9048C82.6087 44.3895 82.4476 44.8482 82.2288 45.2798C82.0592 45.6142 81.9534 45.9709 81.9163 46.354C81.8794 46.7348 81.9181 47.1076 82.0256 47.4751C82.1459 47.8864 82.2847 48.2919 82.4475 48.6899C82.5956 49.0519 82.8033 49.3809 83.0647 49.6743C83.3403 49.9835 83.643 50.2612 83.9749 50.5063C84.2876 50.7374 84.6284 50.9067 84.9983 51.0142C85.3864 51.1267 85.7764 51.1864 86.1663 51.1978C86.6086 51.2107 87.0552 51.2386 87.5022 51.2759C87.8693 51.3062 88.2271 51.2579 88.5764 51.1353C88.9467 51.005 89.2889 50.8274 89.6038 50.6001C89.9188 50.3726 90.1909 50.1064 90.4202 49.8032C90.6798 49.4599 90.9409 49.115 91.2014 48.772C91.4228 48.4801 91.5838 48.1587 91.6819 47.8032C91.793 47.4007 91.8853 46.9888 91.9631 46.5688C92.0317 46.1987 92.0288 45.827 91.9514 45.4556C91.8718 45.074 91.7359 44.7175 91.5413 44.3853C91.318 44.0042 91.1752 43.767 91.1077 43.6626C91.0731 43.6092 90.9242 43.4481 90.5999 43.147C90.3136 42.8813 90.0053 42.6565 89.6741 42.4712C89.3269 42.2769 88.9699 42.1067 88.6038 41.9634C88.2572 41.8278 87.8971 41.7394 87.5256 41.6978C87.1521 41.656 86.7801 41.6592 86.4084 41.7095Z" fill="black"/>
<path d="M87.2102 40.512C84.592 44.2088 88.0827 45.9914 87.3388 49.5446" stroke="black" stroke-width="0.5" stroke-linecap="round"/>
<path d="M85.3997 40.8906C82.7207 44.8674 82.9059 45.7663 83.5225 49.5442" stroke="black" stroke-width="0.5" stroke-linecap="round"/>
<path d="M88.1355 40.6782C90.8144 44.655 90.6292 45.5539 90.0127 49.3318" stroke="black" stroke-width="0.5" stroke-linecap="round"/>
<mask id="path-28-inside-1_135_1540" fill="white">
<path d="M86.3829 100.978C90.4603 97.6766 97.8512 100.045 102.891 106.269C106.26 110.429 107.721 115.259 107.104 118.99L123.061 138.695C124.451 140.412 124.187 142.931 122.47 144.321L122.102 144.619C120.385 146.009 117.866 145.744 116.476 144.028L101.034 124.958C96.9998 125.388 91.9022 122.89 88.1251 118.226C83.0855 112.002 82.3054 104.28 86.3829 100.978Z"/>
</mask>
<path d="M86.3829 100.978C90.4603 97.6766 97.8512 100.045 102.891 106.269C106.26 110.429 107.721 115.259 107.104 118.99L123.061 138.695C124.451 140.412 124.187 142.931 122.47 144.321L122.102 144.619C120.385 146.009 117.866 145.744 116.476 144.028L101.034 124.958C96.9998 125.388 91.9022 122.89 88.1251 118.226C83.0855 112.002 82.3054 104.28 86.3829 100.978Z" fill="white"/>
<path d="M107.104 118.99L105.131 118.664L104.985 119.55L105.55 120.249L107.104 118.99ZM123.061 138.695L124.615 137.436L124.615 137.436L123.061 138.695ZM122.47 144.321L123.728 145.875L123.728 145.875L122.47 144.321ZM122.102 144.619L123.36 146.173L123.36 146.173L122.102 144.619ZM116.476 144.028L114.922 145.286L114.922 145.286L116.476 144.028ZM101.034 124.958L102.588 123.699L101.903 122.854L100.821 122.969L101.034 124.958ZM86.3829 100.978L87.6415 102.533C88.9861 101.444 91.0799 101.127 93.6657 101.956C96.2319 102.778 99.0263 104.674 101.337 107.527L102.891 106.269L104.445 105.01C101.716 101.639 98.295 99.2392 94.8864 98.1469C91.4975 97.0609 87.8571 97.2112 85.1242 99.4242L86.3829 100.978ZM102.891 106.269L101.337 107.527C104.452 111.374 105.631 115.643 105.131 118.664L107.104 118.99L109.078 119.316C109.812 114.874 108.068 109.484 104.445 105.01L102.891 106.269ZM107.104 118.99L105.55 120.249L121.507 139.954L123.061 138.695L124.615 137.436L108.659 117.731L107.104 118.99ZM123.061 138.695L121.507 139.954C122.202 140.812 122.07 142.071 121.211 142.767L122.47 144.321L123.728 145.875C126.304 143.79 126.701 140.012 124.615 137.436L123.061 138.695ZM122.47 144.321L121.211 142.767L120.843 143.065L122.102 144.619L123.36 146.173L123.728 145.875L122.47 144.321ZM122.102 144.619L120.843 143.065C119.985 143.76 118.725 143.627 118.03 142.769L116.476 144.028L114.922 145.286C117.007 147.861 120.785 148.259 123.36 146.173L122.102 144.619ZM116.476 144.028L118.03 142.769L102.588 123.699L101.034 124.958L99.4792 126.217L114.922 145.286L116.476 144.028ZM101.034 124.958L100.821 122.969C97.6903 123.303 93.1974 121.311 89.6794 116.967L88.1251 118.226L86.5709 119.484C90.6069 124.468 96.3093 127.474 101.246 126.947L101.034 124.958ZM88.1251 118.226L89.6794 116.967C87.3691 114.114 86.0958 110.986 85.825 108.305C85.5521 105.604 86.2969 103.622 87.6415 102.533L86.3829 100.978L85.1242 99.4242C82.3914 101.637 81.4876 105.167 81.8452 108.707C82.205 112.269 83.8415 116.114 86.5709 119.484L88.1251 118.226Z" fill="black" mask="url(#path-28-inside-1_135_1540)"/>
<mask id="path-30-inside-2_135_1540" fill="white">
<path d="M105.383 91.9785C109.46 88.6766 116.851 91.0451 121.891 97.2686C125.26 101.429 126.721 106.259 126.104 109.99L142.061 129.695C143.451 131.412 143.187 133.931 141.47 135.321L141.102 135.619C139.385 137.009 136.866 136.744 135.476 135.028L120.034 115.958C116 116.388 110.902 113.89 107.125 109.226C102.085 103.002 101.305 95.2803 105.383 91.9785Z"/>
</mask>
<path d="M105.383 91.9785C109.46 88.6766 116.851 91.0451 121.891 97.2686C125.26 101.429 126.721 106.259 126.104 109.99L142.061 129.695C143.451 131.412 143.187 133.931 141.47 135.321L141.102 135.619C139.385 137.009 136.866 136.744 135.476 135.028L120.034 115.958C116 116.388 110.902 113.89 107.125 109.226C102.085 103.002 101.305 95.2803 105.383 91.9785Z" fill="white"/>
<path d="M126.104 109.99L124.131 109.664L123.985 110.55L124.55 111.249L126.104 109.99ZM142.061 129.695L143.615 128.436L143.615 128.436L142.061 129.695ZM141.47 135.321L142.728 136.875L142.728 136.875L141.47 135.321ZM141.102 135.619L142.36 137.173L142.36 137.173L141.102 135.619ZM135.476 135.028L133.922 136.286L133.922 136.286L135.476 135.028ZM120.034 115.958L121.588 114.699L120.903 113.854L119.821 113.969L120.034 115.958ZM105.383 91.9785L106.642 93.5328C107.986 92.4439 110.08 92.1275 112.666 92.9561C115.232 93.7784 118.026 95.6741 120.337 98.5272L121.891 97.2686L123.445 96.0099C120.716 92.6395 117.295 90.2392 113.886 89.1469C110.498 88.0609 106.857 88.2112 104.124 90.4242L105.383 91.9785ZM121.891 97.2686L120.337 98.5272C123.452 102.374 124.631 106.643 124.131 109.664L126.104 109.99L128.078 110.316C128.812 105.874 127.068 100.484 123.445 96.0099L121.891 97.2686ZM126.104 109.99L124.55 111.249L140.507 130.954L142.061 129.695L143.615 128.436L127.659 108.731L126.104 109.99ZM142.061 129.695L140.507 130.954C141.202 131.812 141.07 133.071 140.211 133.767L141.47 135.321L142.728 136.875C145.304 134.79 145.701 131.012 143.615 128.436L142.061 129.695ZM141.47 135.321L140.211 133.767L139.843 134.065L141.102 135.619L142.36 137.173L142.728 136.875L141.47 135.321ZM141.102 135.619L139.843 134.065C138.985 134.76 137.725 134.627 137.03 133.769L135.476 135.028L133.922 136.286C136.007 138.861 139.785 139.259 142.36 137.173L141.102 135.619ZM135.476 135.028L137.03 133.769L121.588 114.699L120.034 115.958L118.479 117.217L133.922 136.286L135.476 135.028ZM120.034 115.958L119.821 113.969C116.69 114.303 112.197 112.311 108.679 107.967L107.125 109.226L105.571 110.484C109.607 115.468 115.309 118.474 120.246 117.947L120.034 115.958ZM107.125 109.226L108.679 107.967C106.369 105.114 105.096 101.986 104.825 99.3054C104.552 96.6038 105.297 94.6216 106.642 93.5328L105.383 91.9785L104.124 90.4242C101.391 92.6372 100.488 96.1669 100.845 99.7075C101.205 103.269 102.842 107.114 105.571 110.484L107.125 109.226Z" fill="black" mask="url(#path-30-inside-2_135_1540)"/>
<defs>
<radialGradient id="paint0_radial_135_1540" cx="0" cy="0" r="1" gradientTransform="matrix(-0.18702 10.5841 -10.9612 -0.189002 63.1482 70.5723)" gradientUnits="userSpaceOnUse">
<stop offset="0.182692" stop-color="#FFFAFA"/>
<stop offset="0.980769" stop-color="#FF1CD9"/>
</radialGradient>
<radialGradient id="paint1_radial_135_1540" cx="0" cy="0" r="1" gradientTransform="matrix(-0.18702 10.5841 -10.9612 -0.189002 77.7563 70.9503)" gradientUnits="userSpaceOnUse">
<stop offset="0.182692" stop-color="#FFFAFA"/>
<stop offset="0.980769" stop-color="#FF1C20"/>
</radialGradient>
<radialGradient id="paint2_radial_135_1540" cx="0" cy="0" r="1" gradientTransform="matrix(-0.18702 10.5841 -10.9612 -0.189002 93.133 70.9503)" gradientUnits="userSpaceOnUse">
<stop offset="0.182692" stop-color="#FFFAFA"/>
<stop offset="0.980769" stop-color="#FF1CD9"/>
</radialGradient>
<radialGradient id="paint3_radial_135_1540" cx="0" cy="0" r="1" gradientTransform="matrix(-0.18702 10.5841 -10.9612 -0.189002 107.741 70.9503)" gradientUnits="userSpaceOnUse">
<stop offset="0.182692" stop-color="#FFFAFA"/>
<stop offset="0.980769" stop-color="#FF1C20"/>
</radialGradient>
</defs>
</svg>
