<svg width="405" height="322" viewBox="0 0 405 322" fill="none" xmlns="http://www.w3.org/2000/svg">
<rect x="83.5" y="48.5" width="188" height="173" rx="10.5" fill="#FDF4FF" stroke="black" stroke-width="3"/>
<path d="M87.3239 220.218C15.7728 197.156 2 169.707 2 78.2218C53.0807 -38.7796 232.389 0.734833 269.937 52.7811C270.408 53.4338 269.898 54.2882 269.094 54.2765L88.6502 51.6435V219.275C88.6502 219.952 87.9681 220.425 87.3239 220.218Z" fill="#FDF4FF"/>
<path d="M88.6502 51.6435C36.7434 41.9828 60.025 85.8322 2 78.2218M88.6502 51.6435V219.275C88.6502 219.952 87.9681 220.425 87.3239 220.218C15.7728 197.156 2 169.707 2 78.2218M88.6502 51.6435L269.094 54.2765C269.898 54.2882 270.408 53.4338 269.937 52.7811C232.389 0.734833 53.0807 -38.7796 2 78.2218" stroke="black" stroke-width="3"/>
<path d="M144.163 206.111H220.532C221.995 206.111 223.303 205.201 223.813 203.83L227.629 193.558C228.479 191.272 226.788 188.84 224.349 188.839H139.984C137.499 188.839 135.806 191.357 136.742 193.659L140.922 203.93C141.459 205.249 142.74 206.111 144.163 206.111Z" fill="white" stroke="black" stroke-width="3" stroke-linejoin="bevel"/>
<rect x="113.249" y="75.1743" width="137.593" height="114.285" rx="8.5" fill="url(#paint0_linear_133_1341)" stroke="black" stroke-width="3"/>
<rect x="78.8179" y="250.378" width="201.434" height="70.1222" rx="8.5" fill="#FFFFEA" stroke="black" stroke-width="3"/>
<rect x="239.496" y="293.816" width="12.0636" height="7.13575" rx="3.56787" fill="url(#paint1_radial_133_1341)" stroke="black" stroke-width="3"/>
<rect x="259.581" y="293.816" width="12.0636" height="7.13575" rx="3.56787" fill="url(#paint2_radial_133_1341)" stroke="black" stroke-width="3"/>
<rect x="126.878" y="293.816" width="105.314" height="7.13575" rx="3.56787" fill="url(#paint3_radial_133_1341)" stroke="black" stroke-width="3"/>
<rect x="87.4255" y="293.816" width="12.0636" height="7.13575" rx="3.56787" fill="url(#paint4_radial_133_1341)" stroke="black" stroke-width="3"/>
<rect x="87.4255" y="278.613" width="20.6713" height="7.13575" rx="3.56787" fill="url(#paint5_radial_133_1341)" stroke="black" stroke-width="3"/>
<rect x="250.973" y="278.613" width="20.6713" height="7.13575" rx="3.56787" fill="url(#paint6_radial_133_1341)" stroke="black" stroke-width="3"/>
<rect x="114.683" y="278.613" width="12.0636" height="7.13575" rx="3.56787" fill="url(#paint7_radial_133_1341)" stroke="black" stroke-width="3"/>
<rect x="134.769" y="278.613" width="12.0636" height="7.13575" rx="3.56787" fill="url(#paint8_radial_133_1341)" stroke="black" stroke-width="3"/>
<rect x="154.853" y="278.613" width="12.0636" height="7.13575" rx="3.56787" fill="url(#paint9_radial_133_1341)" stroke="black" stroke-width="3"/>
<rect x="173.503" y="278.613" width="12.0636" height="7.13575" rx="3.56787" fill="url(#paint10_radial_133_1341)" stroke="black" stroke-width="3"/>
<rect x="193.588" y="278.613" width="12.0636" height="7.13575" rx="3.56787" fill="url(#paint11_radial_133_1341)" stroke="black" stroke-width="3"/>
<rect x="212.956" y="278.613" width="12.0636" height="7.13575" rx="3.56787" fill="url(#paint12_radial_133_1341)" stroke="black" stroke-width="3"/>
<rect x="232.323" y="278.613" width="12.0636" height="7.13575" rx="3.56787" fill="url(#paint13_radial_133_1341)" stroke="black" stroke-width="3"/>
<rect x="87.4255" y="264.133" width="20.6713" height="7.13575" rx="3.56787" fill="url(#paint14_radial_133_1341)" stroke="black" stroke-width="3"/>
<rect x="250.973" y="264.133" width="20.6713" height="7.13575" rx="3.56787" fill="url(#paint15_radial_133_1341)" stroke="black" stroke-width="3"/>
<rect x="114.683" y="264.133" width="12.0636" height="7.13575" rx="3.56787" fill="url(#paint16_radial_133_1341)" stroke="black" stroke-width="3"/>
<rect x="134.769" y="264.133" width="12.0636" height="7.13575" rx="3.56787" fill="url(#paint17_radial_133_1341)" stroke="black" stroke-width="3"/>
<rect x="154.853" y="264.133" width="12.0636" height="7.13575" rx="3.56787" fill="url(#paint18_radial_133_1341)" stroke="black" stroke-width="3"/>
<rect x="173.503" y="264.133" width="12.0636" height="7.13575" rx="3.56787" fill="url(#paint19_radial_133_1341)" stroke="black" stroke-width="3"/>
<rect x="193.588" y="264.133" width="12.0636" height="7.13575" rx="3.56787" fill="url(#paint20_radial_133_1341)" stroke="black" stroke-width="3"/>
<rect x="212.956" y="264.133" width="12.0636" height="7.13575" rx="3.56787" fill="url(#paint21_radial_133_1341)" stroke="black" stroke-width="3"/>
<rect x="232.323" y="264.133" width="12.0636" height="7.13575" rx="3.56787" fill="url(#paint22_radial_133_1341)" stroke="black" stroke-width="3"/>
<rect x="107.51" y="293.816" width="12.0636" height="7.13575" rx="3.56787" fill="url(#paint23_radial_133_1341)" stroke="black" stroke-width="3"/>
<path d="M148.639 309.744H216.682C218.02 309.744 219.241 310.507 219.828 311.709L221.661 315.465C222.795 317.79 221.102 320.5 218.515 320.5H146.631C143.988 320.5 142.298 317.681 143.544 315.35L145.552 311.595C146.161 310.456 147.348 309.744 148.639 309.744Z" fill="white" stroke="black" stroke-width="3" stroke-linejoin="bevel"/>
<path d="M366.631 256.252C376.884 260.224 385.207 266.136 390.396 272.41C395.619 278.725 397.459 285.115 395.501 290.263C393.543 295.412 387.939 298.917 379.871 300.083C371.856 301.241 361.751 300.014 351.498 296.041C341.244 292.069 332.92 286.156 327.732 279.883C322.509 273.567 320.668 267.177 322.626 262.029C324.584 256.881 330.189 253.375 338.257 252.209C346.272 251.051 356.377 252.279 366.631 256.252Z" fill="#EBFFE9" stroke="black" stroke-width="3"/>
<path d="M273.453 173.399C333.757 181.186 284.622 238.018 323.665 258.829" stroke="black" stroke-width="3" stroke-linecap="round"/>
<path d="M347.822 265.191C350.417 266.412 352.564 267.86 353.939 269.182C354.631 269.846 355.087 270.44 355.323 270.919C355.564 271.407 355.507 271.622 355.479 271.684C355.45 271.746 355.323 271.928 354.798 272.055C354.283 272.18 353.539 272.209 352.59 272.102C350.702 271.888 348.225 271.158 345.629 269.936C343.033 268.715 340.887 267.268 339.511 265.946C338.82 265.282 338.365 264.688 338.129 264.21C337.887 263.721 337.943 263.506 337.971 263.444C338 263.382 338.127 263.201 338.654 263.073C339.168 262.949 339.911 262.919 340.86 263.026C342.748 263.24 345.226 263.969 347.822 265.191Z" fill="white" stroke="black" stroke-width="2"/>
<path d="M57.1253 165.382C58.1725 162.664 62.032 162.664 63.0792 165.382V165.382C63.6153 166.773 65.0556 167.604 66.5272 167.364L66.7807 167.323C69.59 166.865 71.4442 170.159 69.5957 172.323V172.323C68.6196 173.466 68.6196 175.149 69.5957 176.292V176.292C71.4442 178.457 69.59 181.751 66.7807 181.293L66.5272 181.252C65.0556 181.012 63.6153 181.843 63.0792 183.234V183.234C62.032 185.952 58.1725 185.952 57.1253 183.234V183.234C56.5892 181.843 55.1489 181.012 53.6773 181.252L53.4238 181.293C50.6144 181.751 48.7603 178.457 50.6087 176.292V176.292C51.5849 175.149 51.5849 173.466 50.6087 172.323V172.323C48.7603 170.159 50.6144 166.865 53.4238 167.323L53.6773 167.364C55.1489 167.604 56.5892 166.773 57.1253 165.382V165.382Z" fill="#F7A8D1"/>
<path d="M58.5601 137.87C59.6073 135.152 63.4668 135.152 64.514 137.87V137.87C65.0501 139.261 66.4904 140.092 67.962 139.852L68.2155 139.811C71.0249 139.353 72.879 142.647 71.0306 144.812V144.812C70.0544 145.955 70.0544 147.638 71.0305 148.781V148.781C72.879 150.945 71.0249 154.239 68.2155 153.781L67.962 153.74C66.4904 153.5 65.0501 154.331 64.514 155.722V155.722C63.4668 158.44 59.6073 158.44 58.5601 155.722V155.722C58.024 154.331 56.5837 153.5 55.1121 153.74L54.8586 153.781C52.0493 154.239 50.1951 150.945 52.0436 148.781V148.781C53.0197 147.638 53.0197 145.955 52.0436 144.812V144.812C50.1951 142.647 52.0493 139.353 54.8586 139.811L55.1121 139.852C56.5837 140.092 58.024 139.261 58.5601 137.87V137.87Z" fill="#B7F4DE"/>
<path d="M34.279 147.52L36.5996 155.619L45.1943 155.274L38.0339 159.935L41.025 167.82L34.279 162.602L27.533 167.82L30.5242 159.935L23.3637 155.274L31.9584 155.619L34.279 147.52Z" fill="#FFBF10"/>
<defs>
<linearGradient id="paint0_linear_133_1341" x1="182.046" y1="73.6743" x2="182.046" y2="190.959" gradientUnits="userSpaceOnUse">
<stop stop-color="white"/>
<stop offset="0.506137" stop-color="#FCEFFF"/>
<stop offset="1" stop-color="#D7FFF0"/>
</linearGradient>
<radialGradient id="paint1_radial_133_1341" cx="0" cy="0" r="1" gradientUnits="userSpaceOnUse" gradientTransform="translate(245.528 297.384) scale(7.53179 5.06787)">
<stop offset="0.508572" stop-color="white"/>
<stop offset="1" stop-color="#FBFFC7"/>
</radialGradient>
<radialGradient id="paint2_radial_133_1341" cx="0" cy="0" r="1" gradientUnits="userSpaceOnUse" gradientTransform="translate(265.613 297.384) scale(7.53179 5.06787)">
<stop offset="0.508572" stop-color="white"/>
<stop offset="1" stop-color="#FBFFC7"/>
</radialGradient>
<radialGradient id="paint3_radial_133_1341" cx="0" cy="0" r="1" gradientUnits="userSpaceOnUse" gradientTransform="translate(179.535 297.384) scale(54.1572 5.06787)">
<stop offset="0.508572" stop-color="white"/>
<stop offset="1" stop-color="#FBFFC7"/>
</radialGradient>
<radialGradient id="paint4_radial_133_1341" cx="0" cy="0" r="1" gradientUnits="userSpaceOnUse" gradientTransform="translate(93.4573 297.384) scale(7.53179 5.06787)">
<stop offset="0.508572" stop-color="white"/>
<stop offset="1" stop-color="#FBFFC7"/>
</radialGradient>
<radialGradient id="paint5_radial_133_1341" cx="0" cy="0" r="1" gradientUnits="userSpaceOnUse" gradientTransform="translate(97.7612 282.181) scale(11.8357 5.06787)">
<stop offset="0.508572" stop-color="white"/>
<stop offset="1" stop-color="#FBFFC7"/>
</radialGradient>
<radialGradient id="paint6_radial_133_1341" cx="0" cy="0" r="1" gradientUnits="userSpaceOnUse" gradientTransform="translate(261.309 282.181) scale(11.8357 5.06787)">
<stop offset="0.508572" stop-color="white"/>
<stop offset="1" stop-color="#FBFFC7"/>
</radialGradient>
<radialGradient id="paint7_radial_133_1341" cx="0" cy="0" r="1" gradientUnits="userSpaceOnUse" gradientTransform="translate(120.715 282.181) scale(7.53179 5.06787)">
<stop offset="0.508572" stop-color="white"/>
<stop offset="1" stop-color="#FBFFC7"/>
</radialGradient>
<radialGradient id="paint8_radial_133_1341" cx="0" cy="0" r="1" gradientUnits="userSpaceOnUse" gradientTransform="translate(140.8 282.181) scale(7.53179 5.06787)">
<stop offset="0.508572" stop-color="white"/>
<stop offset="1" stop-color="#FBFFC7"/>
</radialGradient>
<radialGradient id="paint9_radial_133_1341" cx="0" cy="0" r="1" gradientUnits="userSpaceOnUse" gradientTransform="translate(160.885 282.181) scale(7.53179 5.06787)">
<stop offset="0.508572" stop-color="white"/>
<stop offset="1" stop-color="#FBFFC7"/>
</radialGradient>
<radialGradient id="paint10_radial_133_1341" cx="0" cy="0" r="1" gradientUnits="userSpaceOnUse" gradientTransform="translate(179.535 282.181) scale(7.53179 5.06787)">
<stop offset="0.508572" stop-color="white"/>
<stop offset="1" stop-color="#FBFFC7"/>
</radialGradient>
<radialGradient id="paint11_radial_133_1341" cx="0" cy="0" r="1" gradientUnits="userSpaceOnUse" gradientTransform="translate(199.62 282.181) scale(7.53179 5.06787)">
<stop offset="0.508572" stop-color="white"/>
<stop offset="1" stop-color="#FBFFC7"/>
</radialGradient>
<radialGradient id="paint12_radial_133_1341" cx="0" cy="0" r="1" gradientUnits="userSpaceOnUse" gradientTransform="translate(218.987 282.181) scale(7.53179 5.06787)">
<stop offset="0.508572" stop-color="white"/>
<stop offset="1" stop-color="#FBFFC7"/>
</radialGradient>
<radialGradient id="paint13_radial_133_1341" cx="0" cy="0" r="1" gradientUnits="userSpaceOnUse" gradientTransform="translate(238.355 282.181) scale(7.53179 5.06787)">
<stop offset="0.508572" stop-color="white"/>
<stop offset="1" stop-color="#FBFFC7"/>
</radialGradient>
<radialGradient id="paint14_radial_133_1341" cx="0" cy="0" r="1" gradientUnits="userSpaceOnUse" gradientTransform="translate(97.7612 267.701) scale(11.8357 5.06787)">
<stop offset="0.508572" stop-color="white"/>
<stop offset="1" stop-color="#FBFFC7"/>
</radialGradient>
<radialGradient id="paint15_radial_133_1341" cx="0" cy="0" r="1" gradientUnits="userSpaceOnUse" gradientTransform="translate(261.309 267.701) scale(11.8357 5.06787)">
<stop offset="0.508572" stop-color="white"/>
<stop offset="1" stop-color="#FBFFC7"/>
</radialGradient>
<radialGradient id="paint16_radial_133_1341" cx="0" cy="0" r="1" gradientUnits="userSpaceOnUse" gradientTransform="translate(120.715 267.701) scale(7.53179 5.06787)">
<stop offset="0.508572" stop-color="white"/>
<stop offset="1" stop-color="#FBFFC7"/>
</radialGradient>
<radialGradient id="paint17_radial_133_1341" cx="0" cy="0" r="1" gradientUnits="userSpaceOnUse" gradientTransform="translate(140.8 267.701) scale(7.53179 5.06787)">
<stop offset="0.508572" stop-color="white"/>
<stop offset="1" stop-color="#FBFFC7"/>
</radialGradient>
<radialGradient id="paint18_radial_133_1341" cx="0" cy="0" r="1" gradientUnits="userSpaceOnUse" gradientTransform="translate(160.885 267.701) scale(7.53179 5.06787)">
<stop offset="0.508572" stop-color="white"/>
<stop offset="1" stop-color="#FBFFC7"/>
</radialGradient>
<radialGradient id="paint19_radial_133_1341" cx="0" cy="0" r="1" gradientUnits="userSpaceOnUse" gradientTransform="translate(179.535 267.701) scale(7.53179 5.06787)">
<stop offset="0.508572" stop-color="white"/>
<stop offset="1" stop-color="#FBFFC7"/>
</radialGradient>
<radialGradient id="paint20_radial_133_1341" cx="0" cy="0" r="1" gradientUnits="userSpaceOnUse" gradientTransform="translate(199.62 267.701) scale(7.53179 5.06787)">
<stop offset="0.508572" stop-color="white"/>
<stop offset="1" stop-color="#FBFFC7"/>
</radialGradient>
<radialGradient id="paint21_radial_133_1341" cx="0" cy="0" r="1" gradientUnits="userSpaceOnUse" gradientTransform="translate(218.987 267.701) scale(7.53179 5.06787)">
<stop offset="0.508572" stop-color="white"/>
<stop offset="1" stop-color="#FBFFC7"/>
</radialGradient>
<radialGradient id="paint22_radial_133_1341" cx="0" cy="0" r="1" gradientUnits="userSpaceOnUse" gradientTransform="translate(238.355 267.701) scale(7.53179 5.06787)">
<stop offset="0.508572" stop-color="white"/>
<stop offset="1" stop-color="#FBFFC7"/>
</radialGradient>
<radialGradient id="paint23_radial_133_1341" cx="0" cy="0" r="1" gradientUnits="userSpaceOnUse" gradientTransform="translate(113.542 297.384) scale(7.53179 5.06787)">
<stop offset="0.508572" stop-color="white"/>
<stop offset="1" stop-color="#FBFFC7"/>
</radialGradient>
</defs>
</svg>
