<svg width="897" height="314" viewBox="0 0 897 314" fill="none" xmlns="http://www.w3.org/2000/svg">
<path d="M448.5 1.5C572.227 1.5 684.177 19.0582 765.142 47.4004C805.631 61.5739 838.29 78.4161 860.798 97.0439C883.315 115.68 895.5 135.948 895.5 157C895.5 178.052 883.315 198.32 860.798 216.956C838.29 235.584 805.631 252.426 765.142 266.6C684.177 294.942 572.227 312.5 448.5 312.5C324.773 312.5 212.823 294.942 131.858 266.6C91.3692 252.426 58.7099 235.584 36.2021 216.956C13.6849 198.32 1.5 178.052 1.5 157C1.5 135.948 13.6849 115.68 36.2021 97.0439C58.7099 78.4161 91.3692 61.5739 131.858 47.4004C212.823 19.0582 324.773 1.5 448.5 1.5Z" fill="url(#paint0_linear_134_1363)" stroke="black" stroke-width="3"/>
<defs>
<linearGradient id="paint0_linear_134_1363" x1="448.5" y1="0" x2="448.5" y2="314" gradientUnits="userSpaceOnUse">
<stop stop-color="white"/>
<stop offset="0.355769" stop-color="white"/>
<stop offset="1" stop-color="#DFF6FF"/>
</linearGradient>
</defs>
</svg>
