<svg width="1452" height="158" viewBox="0 0 1452 158" fill="none" xmlns="http://www.w3.org/2000/svg">
<rect x="7.5" y="33.2305" width="1437" height="123.27" fill="#FDF4FF" stroke="black" stroke-width="3"/>
<path d="M45.1348 6.62109C45.6679 5.44956 47.332 5.44955 47.8652 6.62109L56.9824 26.6543C57.6543 28.1305 59.0689 29.1305 60.6846 29.2725L83.333 31.2607C84.6674 31.3778 85.1912 33.0519 84.1611 33.9082L67.3164 47.9102C66.0007 49.0038 65.419 50.7497 65.8154 52.4141L70.7842 73.2764C71.0869 74.5484 69.7309 75.5718 68.5908 74.9316L48.7041 63.7578C47.3353 62.9888 45.6647 62.9888 44.2959 63.7578L24.4092 74.9316C23.2691 75.5718 21.9131 74.5484 22.2158 73.2764L27.1846 52.4141C27.581 50.7497 26.9993 49.0038 25.6836 47.9102L8.83887 33.9082C7.80878 33.0519 8.33262 31.3778 9.66699 31.2607L32.3154 29.2725C33.9311 29.1305 35.3457 28.1305 36.0176 26.6543L45.1348 6.62109Z" fill="#FFFFC4" stroke="black" stroke-width="3"/>
<path d="M204.135 6.62109C204.668 5.44956 206.332 5.44955 206.865 6.62109L215.982 26.6543C216.654 28.1305 218.069 29.1305 219.685 29.2725L242.333 31.2607C243.667 31.3778 244.191 33.0519 243.161 33.9082L226.316 47.9102C225.001 49.0038 224.419 50.7497 224.815 52.4141L229.784 73.2764C230.087 74.5484 228.731 75.5718 227.591 74.9316L207.704 63.7578C206.335 62.9888 204.665 62.9888 203.296 63.7578L183.409 74.9316C182.269 75.5718 180.913 74.5484 181.216 73.2764L186.185 52.4141C186.581 50.7497 185.999 49.0038 184.684 47.9102L167.839 33.9082C166.809 33.0519 167.333 31.3778 168.667 31.2607L191.315 29.2725C192.931 29.1305 194.346 28.1305 195.018 26.6543L204.135 6.62109Z" fill="#FFFFC4" stroke="black" stroke-width="3"/>
<path d="M1404.13 6.62109C1404.67 5.44956 1406.33 5.44955 1406.87 6.62109L1415.98 26.6543C1416.65 28.1305 1418.07 29.1305 1419.68 29.2725L1442.33 31.2607C1443.67 31.3778 1444.19 33.0519 1443.16 33.9082L1426.32 47.9102C1425 49.0038 1424.42 50.7497 1424.82 52.4141L1429.78 73.2764C1430.09 74.5484 1428.73 75.5718 1427.59 74.9316L1407.7 63.7578C1406.34 62.9888 1404.66 62.9888 1403.3 63.7578L1383.41 74.9316C1382.27 75.5718 1380.91 74.5484 1381.22 73.2764L1386.18 52.4141C1386.58 50.7497 1386 49.0038 1384.68 47.9102L1367.84 33.9082C1366.81 33.0519 1367.33 31.3778 1368.67 31.2607L1391.32 29.2725C1392.93 29.1305 1394.35 28.1305 1395.02 26.6543L1404.13 6.62109Z" fill="#FFFFC4" stroke="black" stroke-width="3"/>
<path d="M1323.64 6.55176C1324.17 5.38773 1325.83 5.38773 1326.36 6.55176L1335.62 26.668C1336.29 28.1371 1337.7 29.1306 1339.32 29.2705L1362.25 31.2617C1363.58 31.378 1364.11 33.0613 1363.07 33.915L1346.06 47.9033C1344.73 48.998 1344.14 50.7563 1344.54 52.4316L1349.57 73.3027C1349.87 74.5727 1348.52 75.5993 1347.38 74.9648L1327.19 63.7393C1325.83 62.9835 1324.17 62.9835 1322.81 63.7393L1302.62 74.9648C1301.48 75.5993 1300.13 74.5727 1300.43 73.3027L1305.46 52.4316C1305.86 50.7563 1305.27 48.998 1303.94 47.9033L1286.93 33.915C1285.89 33.0614 1286.42 31.378 1287.75 31.2617L1310.68 29.2705C1312.3 29.1306 1313.71 28.1371 1314.38 26.668L1323.64 6.55176Z" fill="#FFFFC4" stroke="black" stroke-width="3"/>
<path d="M1242.64 6.55176C1243.17 5.38773 1244.83 5.38773 1245.36 6.55176L1254.62 26.668C1255.29 28.1371 1256.7 29.1306 1258.32 29.2705L1281.25 31.2617C1282.58 31.378 1283.11 33.0613 1282.07 33.915L1265.06 47.9033C1263.73 48.998 1263.14 50.7563 1263.54 52.4316L1268.57 73.3027C1268.87 74.5727 1267.52 75.5993 1266.38 74.9648L1246.19 63.7393C1244.83 62.9835 1243.17 62.9835 1241.81 63.7393L1221.62 74.9648C1220.48 75.5993 1219.13 74.5727 1219.43 73.3027L1224.46 52.4316C1224.86 50.7563 1224.27 48.998 1222.94 47.9033L1205.93 33.915C1204.89 33.0614 1205.42 31.378 1206.75 31.2617L1229.68 29.2705C1231.3 29.1306 1232.71 28.1371 1233.38 26.668L1242.64 6.55176Z" fill="#FFFFC4" stroke="black" stroke-width="3"/>
<path d="M1162.64 6.55176C1163.17 5.38773 1164.83 5.38773 1165.36 6.55176L1174.62 26.668C1175.29 28.1371 1176.7 29.1306 1178.32 29.2705L1201.25 31.2617C1202.58 31.378 1203.11 33.0613 1202.07 33.915L1185.06 47.9033C1183.73 48.998 1183.14 50.7563 1183.54 52.4316L1188.57 73.3027C1188.87 74.5727 1187.52 75.5993 1186.38 74.9648L1166.19 63.7393C1164.83 62.9835 1163.17 62.9835 1161.81 63.7393L1141.62 74.9648C1140.48 75.5993 1139.13 74.5727 1139.43 73.3027L1144.46 52.4316C1144.86 50.7563 1144.27 48.998 1142.94 47.9033L1125.93 33.915C1124.89 33.0614 1125.42 31.378 1126.75 31.2617L1149.68 29.2705C1151.3 29.1306 1152.71 28.1371 1153.38 26.668L1162.64 6.55176Z" fill="#FFFFC4" stroke="black" stroke-width="3"/>
<path d="M1083.13 6.62109C1083.67 5.44956 1085.33 5.44955 1085.87 6.62109L1094.98 26.6543C1095.65 28.1305 1097.07 29.1305 1098.68 29.2725L1121.33 31.2607C1122.67 31.3778 1123.19 33.0519 1122.16 33.9082L1105.32 47.9102C1104 49.0038 1103.42 50.7497 1103.82 52.4141L1108.78 73.2764C1109.09 74.5484 1107.73 75.5718 1106.59 74.9316L1086.7 63.7578C1085.34 62.9888 1083.66 62.9888 1082.3 63.7578L1062.41 74.9316C1061.27 75.5718 1059.91 74.5484 1060.22 73.2764L1065.18 52.4141C1065.58 50.7497 1065 49.0038 1063.68 47.9102L1046.84 33.9082C1045.81 33.0519 1046.33 31.3778 1047.67 31.2607L1070.32 29.2725C1071.93 29.1305 1073.35 28.1305 1074.02 26.6543L1083.13 6.62109Z" fill="#FFFFC4" stroke="black" stroke-width="3"/>
<path d="M761.638 6.55176C762.173 5.38773 763.827 5.38773 764.362 6.55176L773.616 26.668C774.292 28.1371 775.704 29.1306 777.315 29.2705L800.245 31.2617C801.584 31.378 802.106 33.0613 801.068 33.915L784.06 47.9033C782.729 48.998 782.14 50.7563 782.543 52.4316L787.567 73.3027C787.873 74.5727 786.523 75.5993 785.381 74.9648L765.187 63.7393C763.827 62.9835 762.173 62.9835 760.813 63.7393L740.619 74.9648C739.477 75.5993 738.127 74.5727 738.433 73.3027L743.457 52.4316C743.86 50.7563 743.271 48.998 741.94 47.9033L724.932 33.915C723.894 33.0614 724.416 31.378 725.755 31.2617L748.685 29.2705C750.296 29.1306 751.708 28.1371 752.384 26.668L761.638 6.55176Z" fill="#FFFFC4" stroke="black" stroke-width="3"/>
<path d="M842.135 6.62109C842.668 5.44956 844.332 5.44955 844.865 6.62109L853.982 26.6543C854.654 28.1305 856.069 29.1305 857.685 29.2725L880.333 31.2607C881.667 31.3778 882.191 33.0519 881.161 33.9082L864.316 47.9102C863.001 49.0038 862.419 50.7497 862.815 52.4141L867.784 73.2764C868.087 74.5484 866.731 75.5718 865.591 74.9316L845.704 63.7578C844.335 62.9888 842.665 62.9888 841.296 63.7578L821.409 74.9316C820.269 75.5718 818.913 74.5484 819.216 73.2764L824.185 52.4141C824.581 50.7497 823.999 49.0038 822.684 47.9102L805.839 33.9082C804.809 33.0519 805.333 31.3778 806.667 31.2607L829.315 29.2725C830.931 29.1305 832.346 28.1305 833.018 26.6543L842.135 6.62109Z" fill="#FFFFC4" stroke="black" stroke-width="3"/>
<path d="M921.638 6.55176C922.173 5.38773 923.827 5.38773 924.362 6.55176L933.616 26.668C934.292 28.1371 935.704 29.1306 937.315 29.2705L960.245 31.2617C961.584 31.378 962.106 33.0613 961.068 33.915L944.06 47.9033C942.729 48.998 942.14 50.7563 942.543 52.4316L947.567 73.3027C947.873 74.5727 946.523 75.5993 945.381 74.9648L925.187 63.7393C923.827 62.9835 922.173 62.9835 920.813 63.7393L900.619 74.9648C899.477 75.5993 898.127 74.5727 898.433 73.3027L903.457 52.4316C903.86 50.7563 903.271 48.998 901.94 47.9033L884.932 33.915C883.894 33.0614 884.416 31.378 885.755 31.2617L908.685 29.2705C910.296 29.1306 911.708 28.1371 912.384 26.668L921.638 6.55176Z" fill="#FFFFC4" stroke="black" stroke-width="3"/>
<path d="M1001.64 6.55176C1002.17 5.38773 1003.83 5.38773 1004.36 6.55176L1013.62 26.668C1014.29 28.1371 1015.7 29.1306 1017.32 29.2705L1040.25 31.2617C1041.58 31.378 1042.11 33.0613 1041.07 33.915L1024.06 47.9033C1022.73 48.998 1022.14 50.7563 1022.54 52.4316L1027.57 73.3027C1027.87 74.5727 1026.52 75.5993 1025.38 74.9648L1005.19 63.7393C1003.83 62.9835 1002.17 62.9835 1000.81 63.7393L980.619 74.9648C979.477 75.5993 978.127 74.5727 978.433 73.3027L983.457 52.4316C983.86 50.7563 983.271 48.998 981.94 47.9033L964.932 33.915C963.894 33.0614 964.416 31.378 965.755 31.2617L988.685 29.2705C990.296 29.1306 991.708 28.1371 992.384 26.668L1001.64 6.55176Z" fill="#FFFFC4" stroke="black" stroke-width="3"/>
<path d="M681.638 6.55176C682.173 5.38773 683.827 5.38773 684.362 6.55176L693.616 26.668C694.292 28.1371 695.704 29.1306 697.315 29.2705L720.245 31.2617C721.584 31.378 722.106 33.0613 721.068 33.915L704.06 47.9033C702.729 48.998 702.14 50.7563 702.543 52.4316L707.567 73.3027C707.873 74.5727 706.523 75.5993 705.381 74.9648L685.187 63.7393C683.827 62.9835 682.173 62.9835 680.813 63.7393L660.619 74.9648C659.477 75.5993 658.127 74.5727 658.433 73.3027L663.457 52.4316C663.86 50.7563 663.271 48.998 661.94 47.9033L644.932 33.915C643.894 33.0614 644.416 31.378 645.755 31.2617L668.685 29.2705C670.296 29.1306 671.708 28.1371 672.384 26.668L681.638 6.55176Z" fill="#FFFFC4" stroke="black" stroke-width="3"/>
<path d="M601.638 6.55176C602.173 5.38773 603.827 5.38773 604.362 6.55176L613.616 26.668C614.292 28.1371 615.704 29.1306 617.315 29.2705L640.245 31.2617C641.584 31.378 642.106 33.0613 641.068 33.915L624.06 47.9033C622.729 48.998 622.14 50.7563 622.543 52.4316L627.567 73.3027C627.873 74.5727 626.523 75.5993 625.381 74.9648L605.187 63.7393C603.827 62.9835 602.173 62.9835 600.813 63.7393L580.619 74.9648C579.477 75.5993 578.127 74.5727 578.433 73.3027L583.457 52.4316C583.86 50.7563 583.271 48.998 581.94 47.9033L564.932 33.915C563.894 33.0614 564.416 31.378 565.755 31.2617L588.685 29.2705C590.296 29.1306 591.708 28.1371 592.384 26.668L601.638 6.55176Z" fill="#FFFFC4" stroke="black" stroke-width="3"/>
<path d="M522.135 6.62109C522.668 5.44956 524.332 5.44955 524.865 6.62109L533.982 26.6543C534.654 28.1305 536.069 29.1305 537.685 29.2725L560.333 31.2607C561.667 31.3778 562.191 33.0519 561.161 33.9082L544.316 47.9102C543.001 49.0038 542.419 50.7497 542.815 52.4141L547.784 73.2764C548.087 74.5484 546.731 75.5718 545.591 74.9316L525.704 63.7578C524.335 62.9888 522.665 62.9888 521.296 63.7578L501.409 74.9316C500.269 75.5718 498.913 74.5484 499.216 73.2764L504.185 52.4141C504.581 50.7497 503.999 49.0038 502.684 47.9102L485.839 33.9082C484.809 33.0519 485.333 31.3778 486.667 31.2607L509.315 29.2725C510.931 29.1305 512.346 28.1305 513.018 26.6543L522.135 6.62109Z" fill="#FFFFC4" stroke="black" stroke-width="3"/>
<path d="M441.638 6.55176C442.173 5.38773 443.827 5.38773 444.362 6.55176L453.616 26.668C454.292 28.1371 455.704 29.1306 457.315 29.2705L480.245 31.2617C481.584 31.378 482.106 33.0613 481.068 33.915L464.06 47.9033C462.729 48.998 462.14 50.7563 462.543 52.4316L467.567 73.3027C467.873 74.5727 466.523 75.5993 465.381 74.9648L445.187 63.7393C443.827 62.9835 442.173 62.9835 440.813 63.7393L420.619 74.9648C419.477 75.5993 418.127 74.5727 418.433 73.3027L423.457 52.4316C423.86 50.7563 423.271 48.998 421.94 47.9033L404.932 33.915C403.894 33.0614 404.416 31.378 405.755 31.2617L428.685 29.2705C430.296 29.1306 431.708 28.1371 432.384 26.668L441.638 6.55176Z" fill="#FFFFC4" stroke="black" stroke-width="3"/>
<path d="M361.135 6.62109C361.668 5.44956 363.332 5.44955 363.865 6.62109L372.982 26.6543C373.654 28.1305 375.069 29.1305 376.685 29.2725L399.333 31.2607C400.667 31.3778 401.191 33.0519 400.161 33.9082L383.316 47.9102C382.001 49.0038 381.419 50.7497 381.815 52.4141L386.784 73.2764C387.087 74.5484 385.731 75.5718 384.591 74.9316L364.704 63.7578C363.335 62.9888 361.665 62.9888 360.296 63.7578L340.409 74.9316C339.269 75.5718 337.913 74.5484 338.216 73.2764L343.185 52.4141C343.581 50.7497 342.999 49.0038 341.684 47.9102L324.839 33.9082C323.809 33.0519 324.333 31.3778 325.667 31.2607L348.315 29.2725C349.931 29.1305 351.346 28.1305 352.018 26.6543L361.135 6.62109Z" fill="#FFFFC4" stroke="black" stroke-width="3"/>
<path d="M283.638 6.55176C284.173 5.38773 285.827 5.38773 286.362 6.55176L295.616 26.668C296.292 28.1371 297.704 29.1306 299.315 29.2705L322.245 31.2617C323.584 31.378 324.106 33.0613 323.068 33.915L306.06 47.9033C304.729 48.998 304.14 50.7563 304.543 52.4316L309.567 73.3027C309.873 74.5727 308.523 75.5993 307.381 74.9648L287.187 63.7393C285.827 62.9835 284.173 62.9835 282.813 63.7393L262.619 74.9648C261.477 75.5993 260.127 74.5727 260.433 73.3027L265.457 52.4316C265.86 50.7563 265.271 48.998 263.94 47.9033L246.932 33.915C245.894 33.0614 246.416 31.378 247.755 31.2617L270.685 29.2705C272.296 29.1306 273.708 28.1371 274.384 26.668L283.638 6.55176Z" fill="#FFFFC4" stroke="black" stroke-width="3"/>
<path d="M123.638 6.55176C124.173 5.38773 125.827 5.38773 126.362 6.55176L135.616 26.668C136.292 28.1371 137.704 29.1306 139.315 29.2705L162.245 31.2617C163.584 31.378 164.106 33.0613 163.068 33.915L146.06 47.9033C144.729 48.998 144.14 50.7563 144.543 52.4316L149.567 73.3027C149.873 74.5727 148.523 75.5993 147.381 74.9648L127.187 63.7393C125.827 62.9835 124.173 62.9835 122.813 63.7393L102.619 74.9648C101.477 75.5993 100.127 74.5727 100.433 73.3027L105.457 52.4316C105.86 50.7563 105.271 48.998 103.94 47.9033L86.9316 33.915C85.8936 33.0614 86.4159 31.378 87.7549 31.2617L110.685 29.2705C112.296 29.1306 113.708 28.1371 114.384 26.668L123.638 6.55176Z" fill="#FFFFC4" stroke="black" stroke-width="3"/>
</svg>
