<svg width="137" height="106" viewBox="0 0 137 106" fill="none" xmlns="http://www.w3.org/2000/svg">
<path d="M37 48.5C47.0177 48.5 56.0125 50.6985 62.4492 54.1777C68.9457 57.6894 72.5 62.2904 72.5 67C72.5 71.7096 68.9457 76.3106 62.4492 79.8223C56.0125 83.3015 47.0177 85.5 37 85.5C26.9823 85.5 17.9875 83.3015 11.5508 79.8223C5.05427 76.3106 1.5 71.7096 1.5 67C1.5 62.2904 5.05427 57.6894 11.5508 54.1777C17.9875 50.6985 26.9823 48.5 37 48.5Z" fill="#FFFFDB" stroke="black" stroke-width="3"/>
<path d="M37 1.5C46.9706 1.5 55.9278 4.12447 62.3467 8.28809C68.7801 12.4611 72.5 18.0496 72.5 24C72.5 29.9504 68.7801 35.5389 62.3467 39.7119C55.9278 43.8755 46.9706 46.5 37 46.5C27.0294 46.5 18.0722 43.8755 11.6533 39.7119C5.21992 35.5389 1.5 29.9504 1.5 24C1.5 18.0496 5.21992 12.4611 11.6533 8.28809C18.0722 4.12447 27.0294 1.5 37 1.5Z" fill="#FFFFC4" stroke="black" stroke-width="3"/>
<path d="M36.5 11.5C43.6155 11.5 49.9834 13.081 54.5186 15.5625C59.1094 18.0745 61.5 21.2998 61.5 24.5C61.5 27.7002 59.1094 30.9255 54.5186 33.4375C49.9834 35.919 43.6155 37.5 36.5 37.5C29.3845 37.5 23.0166 35.919 18.4814 33.4375C13.8906 30.9255 11.5 27.7002 11.5 24.5C11.5 21.2998 13.8906 18.0745 18.4814 15.5625C23.0166 13.081 29.3845 11.5 36.5 11.5Z" fill="white" stroke="black" stroke-width="3"/>
<path d="M98.2168 79.8223C99.7321 79.6176 101.268 79.6176 102.783 79.8223C103.943 79.979 105.115 80.034 106.285 79.9863L106.74 79.9678C108.083 79.913 109.428 80.0483 110.733 80.3701C111.811 80.6358 112.912 80.7964 114.021 80.8506L114.914 80.8945C116.003 80.9478 117.075 81.1808 118.088 81.584C119.03 81.9589 120.012 82.2216 121.016 82.3662L122.25 82.5439C123.022 82.6552 123.761 82.933 124.415 83.3574C125.174 83.8499 126.008 84.2162 126.885 84.4424L128.281 84.8027C128.698 84.9104 129.07 85.1496 129.341 85.4844C129.865 86.1318 130.544 86.6375 131.313 86.957L132.559 87.4746C132.636 87.5069 132.692 87.5765 132.707 87.6592C132.861 88.5183 133.355 89.2794 134.076 89.7705L134.583 90.1143C134.286 90.9547 134.412 91.8887 134.924 92.623L134.775 92.7598C134.104 93.374 133.764 94.2675 133.852 95.1699L132.914 95.6641C132.175 96.0533 131.578 96.6681 131.212 97.4189C131.102 97.6449 130.905 97.8169 130.666 97.8955L129.296 98.3457C128.479 98.6143 127.722 99.043 127.071 99.6055C126.611 100.004 126.054 100.275 125.457 100.393L124.112 100.659C123.172 100.845 122.261 101.157 121.405 101.589C120.565 102.012 119.653 102.276 118.717 102.365L117.636 102.468C116.575 102.569 115.529 102.781 114.513 103.102C113.344 103.47 112.127 103.659 110.902 103.664L110.22 103.667C109.074 103.672 107.931 103.78 106.805 103.991C105.383 104.258 103.932 104.33 102.491 104.205L102.273 104.187C101.094 104.084 99.9064 104.084 98.7266 104.187L98.5088 104.205C97.068 104.33 95.6167 104.258 94.1953 103.991C93.0692 103.78 91.926 103.672 90.7803 103.667L90.0977 103.664C88.8728 103.659 87.6556 103.47 86.4873 103.102C85.4714 102.781 84.4246 102.569 83.3643 102.468L82.2832 102.365C81.3466 102.276 80.4349 102.012 79.5947 101.589C78.7389 101.157 77.828 100.845 76.8877 100.659L75.543 100.393C74.9457 100.275 74.3894 100.004 73.9287 99.6055C73.2779 99.043 72.5213 98.6143 71.7041 98.3457L70.334 97.8955C70.0951 97.8169 69.8983 97.6449 69.7881 97.4189C69.4218 96.6681 68.8251 96.0533 68.0859 95.6641L67.1475 95.1699C67.2352 94.2675 66.8956 93.374 66.2246 92.7598L66.0752 92.623C66.5872 91.8885 66.7136 90.9549 66.416 90.1143L66.9238 89.7705C67.6454 89.2794 68.1389 88.5183 68.293 87.6592C68.3078 87.5765 68.3639 87.5069 68.4414 87.4746L69.6865 86.957C70.4562 86.6375 71.1346 86.1318 71.6592 85.4844C71.9304 85.1496 72.3016 84.9104 72.7188 84.8027L74.1152 84.4424C74.9916 84.2162 75.8256 83.8499 76.585 83.3574C77.2393 82.933 77.978 82.6552 78.75 82.5439L79.9844 82.3662C80.9876 82.2216 81.9704 81.9589 82.9121 81.584C83.9247 81.1808 84.9973 80.9478 86.0859 80.8945L86.9795 80.8506C88.0881 80.7964 89.1889 80.6358 90.2666 80.3701C91.5718 80.0483 92.9166 79.913 94.2598 79.9678L94.7148 79.9863C95.8847 80.034 97.0565 79.979 98.2168 79.8223Z" fill="#DFF6FF" stroke="black" stroke-width="3"/>
<path d="M100.864 54.5029C103.174 54.5506 105.43 55.2457 108.201 56.5615C108.983 56.933 109.5 57.7603 109.5 58.7041V90.3916C109.5 91.6014 108.646 92.6098 107.509 92.7959C102.077 93.6849 98.2764 93.7579 93.3721 92.8672C92.3061 92.6736 91.5 91.7024 91.5 90.5205V58.6963C91.5 57.7539 92.0154 56.9344 92.7871 56.5742C96.0505 55.0514 98.5584 54.4554 100.864 54.5029Z" fill="#FFE1F1" stroke="black" stroke-width="3"/>
<path d="M101.987 41.5166C103.321 40.7336 105 41.695 105 43.2412V58.2354C105 58.9084 104.678 59.4974 104.173 59.7979C102.77 60.6318 101.663 60.9958 100.597 61C99.5275 61.0041 98.367 60.6465 96.8594 59.7842C96.3357 59.4845 96 58.8839 96 58.1982V46.1777C96 45.4685 96.3758 44.8123 96.9873 44.4531L101.987 41.5166Z" fill="#FF7373" stroke="black" stroke-width="2"/>
<path d="M32.0303 54.0664C33.0921 54.0185 34 54.8924 34 56.0146V62.335C34 63.3966 33.1704 64.2734 32.1104 64.332L13.9697 65.3359C11.8891 65.4511 11.0408 62.7047 12.8242 61.627L15.6123 59.9424L15.6318 59.9307L15.6514 59.918C19.0128 57.6689 21.675 56.2796 24.1963 55.415C26.7102 54.553 29.1302 54.1974 32.0303 54.0664Z" fill="#FFEDFE" stroke="black" stroke-width="2"/>
<path d="M40.9697 54.0664C39.9079 54.0185 39 54.8924 39 56.0146V62.335C39 63.3966 39.8296 64.2734 40.8896 64.332L59.0303 65.3359C61.1109 65.4511 61.9592 62.7047 60.1758 61.627L57.3877 59.9424L57.3682 59.9307L57.3486 59.918C53.9872 57.6689 51.325 56.2796 48.8037 55.415C46.2898 54.553 43.8698 54.1974 40.9697 54.0664Z" fill="#DCD5FF" stroke="black" stroke-width="2"/>
<path d="M33.8444 78.8365C34.905 78.7756 35.7431 77.8112 35.6593 76.6923L35.1718 70.1803C35.0926 69.1217 34.2016 68.3318 33.1429 68.381L14.5305 69.2447C12.4534 69.3411 11.8127 72.1627 13.6647 73.0582L16.792 74.5696L16.8123 74.5793L16.8328 74.5909C20.4028 76.5303 23.1996 77.6664 25.8148 78.2827C28.4225 78.8971 30.8975 79.0057 33.8444 78.8365Z" fill="#C0EDBB" stroke="black" stroke-width="2"/>
<path d="M40.5687 78.8365C39.508 78.7756 38.67 77.8112 38.7537 76.6923L39.2413 70.1803C39.3205 69.1217 40.2114 68.3318 41.2702 68.381L59.8826 69.2447C61.9597 69.3411 62.6003 72.1627 60.7484 73.0582L57.6211 74.5696L57.6008 74.5793L57.5803 74.5909C54.0103 76.5303 51.2135 77.6664 48.5983 78.2827C45.9906 78.8971 43.5156 79.0057 40.5687 78.8365Z" fill="#A89480" stroke="black" stroke-width="2"/>
</svg>
